<svg width="201" height="69" viewBox="0 0 201 69" fill="none" xmlns="http://www.w3.org/2000/svg">
<path d="M70 0H146C176.376 0 201 24.6243 201 55H70V0Z" fill="white"/>
<path d="M7.9875 38C7.52083 38 7.1375 37.8583 6.8375 37.575C6.5375 37.275 6.3875 36.9083 6.3875 36.475V21.975H9.6375V36.475C9.6375 36.9083 9.47917 37.275 9.1625 37.575C8.8625 37.8583 8.47083 38 7.9875 38ZM2.4625 23.375C2.02917 23.375 1.6625 23.2417 1.3625 22.975C1.07917 22.7083 0.9375 22.3583 0.9375 21.925C0.9375 21.4917 1.07917 21.15 1.3625 20.9C1.6625 20.6333 2.02917 20.5 2.4625 20.5H13.5625C13.9958 20.5 14.3542 20.6333 14.6375 20.9C14.9375 21.1667 15.0875 21.5167 15.0875 21.95C15.0875 22.3833 14.9375 22.7333 14.6375 23C14.3542 23.25 13.9958 23.375 13.5625 23.375H2.4625ZM19.3119 20.5C19.7119 20.5 20.0619 20.65 20.3619 20.95C20.6786 21.2333 20.8369 21.5917 20.8369 22.025V36.475C20.8369 36.9083 20.6786 37.275 20.3619 37.575C20.0452 37.8583 19.6786 38 19.2619 38C18.7952 38 18.4202 37.8583 18.1369 37.575C17.8536 37.275 17.7119 36.9083 17.7119 36.475V22.025C17.7119 21.5917 17.8619 21.2333 18.1619 20.95C18.4619 20.65 18.8452 20.5 19.3119 20.5ZM30.3869 20.5C30.8536 20.5 31.2286 20.65 31.5119 20.95C31.7952 21.2333 31.9369 21.5917 31.9369 22.025V36.475C31.9369 36.9083 31.7869 37.275 31.4869 37.575C31.2036 37.8583 30.8202 38 30.3369 38C29.9369 38 29.5786 37.8583 29.2619 37.575C28.9619 37.275 28.8119 36.9083 28.8119 36.475V22.025C28.8119 21.5917 28.9702 21.2333 29.2869 20.95C29.6036 20.65 29.9702 20.5 30.3869 20.5ZM19.2369 27.775H30.3869V30.65H19.2369V27.775ZM37.2057 20.5H45.5807C46.014 20.5 46.3723 20.6417 46.6557 20.925C46.9557 21.1917 47.1057 21.5417 47.1057 21.975C47.1057 22.3917 46.9557 22.7333 46.6557 23C46.3723 23.25 46.014 23.375 45.5807 23.375H38.5807L38.8057 22.95V27.825L38.6057 27.625H44.4557C44.889 27.625 45.2473 27.7667 45.5307 28.05C45.8307 28.3167 45.9807 28.6667 45.9807 29.1C45.9807 29.5167 45.8307 29.8583 45.5307 30.125C45.2473 30.375 44.889 30.5 44.4557 30.5H38.6807L38.8057 30.3V35.35L38.6057 35.125H45.5807C46.014 35.125 46.3723 35.275 46.6557 35.575C46.9557 35.8583 47.1057 36.1917 47.1057 36.575C47.1057 36.9917 46.9557 37.3333 46.6557 37.6C46.3723 37.8667 46.014 38 45.5807 38H37.2057C36.7723 38 36.4057 37.8583 36.1057 37.575C35.8223 37.275 35.6807 36.9083 35.6807 36.475V22.025C35.6807 21.5917 35.8223 21.2333 36.1057 20.95C36.4057 20.65 36.7723 20.5 37.2057 20.5ZM62.6191 38.25C61.4525 38.25 60.4025 38.1083 59.4691 37.825C58.5358 37.525 57.6441 37.0083 56.7941 36.275C56.5775 36.0917 56.4108 35.8833 56.2941 35.65C56.1775 35.4167 56.1191 35.1833 56.1191 34.95C56.1191 34.5667 56.2525 34.2333 56.5191 33.95C56.8025 33.65 57.1525 33.5 57.5691 33.5C57.8858 33.5 58.1691 33.6 58.4191 33.8C59.0525 34.3167 59.6775 34.7083 60.2941 34.975C60.9275 35.2417 61.7025 35.375 62.6191 35.375C63.2358 35.375 63.8025 35.2833 64.3191 35.1C64.8358 34.9 65.2525 34.6417 65.5691 34.325C65.8858 33.9917 66.0441 33.6167 66.0441 33.2C66.0441 32.7 65.8941 32.275 65.5941 31.925C65.2941 31.575 64.8358 31.2833 64.2191 31.05C63.6025 30.8 62.8191 30.6083 61.8691 30.475C60.9691 30.3417 60.1775 30.1417 59.4941 29.875C58.8108 29.5917 58.2358 29.2417 57.7691 28.825C57.3191 28.3917 56.9775 27.8917 56.7441 27.325C56.5108 26.7417 56.3941 26.0917 56.3941 25.375C56.3941 24.2917 56.6691 23.3667 57.2191 22.6C57.7858 21.8333 58.5441 21.25 59.4941 20.85C60.4441 20.45 61.4941 20.25 62.6441 20.25C63.7275 20.25 64.7275 20.4167 65.6441 20.75C66.5775 21.0667 67.3358 21.475 67.9191 21.975C68.4025 22.3583 68.6441 22.8 68.6441 23.3C68.6441 23.6667 68.5025 24 68.2191 24.3C67.9358 24.6 67.6025 24.75 67.2191 24.75C66.9691 24.75 66.7441 24.675 66.5441 24.525C66.2775 24.2917 65.9191 24.075 65.4691 23.875C65.0191 23.6583 64.5441 23.4833 64.0441 23.35C63.5441 23.2 63.0775 23.125 62.6441 23.125C61.9275 23.125 61.3191 23.2167 60.8191 23.4C60.3358 23.5833 59.9691 23.8333 59.7191 24.15C59.4691 24.4667 59.3441 24.8333 59.3441 25.25C59.3441 25.75 59.4858 26.1667 59.7691 26.5C60.0691 26.8167 60.4941 27.075 61.0441 27.275C61.5941 27.4583 62.2525 27.625 63.0191 27.775C64.0191 27.9583 64.8941 28.175 65.6441 28.425C66.4108 28.675 67.0441 29 67.5441 29.4C68.0441 29.7833 68.4191 30.275 68.6691 30.875C68.9191 31.4583 69.0441 32.175 69.0441 33.025C69.0441 34.1083 68.7441 35.0417 68.1441 35.825C67.5441 36.6083 66.7525 37.2083 65.7691 37.625C64.8025 38.0417 63.7525 38.25 62.6191 38.25Z" fill="white"/>
<path d="M75.0361 36.475C75.0361 36.9083 74.8778 37.275 74.5611 37.575C74.2445 37.8583 73.8778 38 73.4611 38C72.9945 38 72.6195 37.8583 72.3361 37.575C72.0528 37.275 71.9111 36.9083 71.9111 36.475V22.025C71.9111 21.5917 72.0611 21.2333 72.3611 20.95C72.6611 20.65 73.0445 20.5 73.5111 20.5C73.9111 20.5 74.2611 20.65 74.5611 20.95C74.8778 21.2333 75.0361 21.5917 75.0361 22.025V36.475ZM80.3709 20.475C80.6042 20.475 80.8459 20.5417 81.0959 20.675C81.3626 20.7917 81.5626 20.95 81.6959 21.15L87.7709 30.5L86.5209 30.45L92.7459 21.15C93.0626 20.7 93.4709 20.475 93.9709 20.475C94.3709 20.475 94.7292 20.6167 95.0459 20.9C95.3626 21.1833 95.5209 21.55 95.5209 22V36.475C95.5209 36.9083 95.3792 37.275 95.0959 37.575C94.8126 37.8583 94.4376 38 93.9709 38C93.5042 38 93.1209 37.8583 92.8209 37.575C92.5376 37.275 92.3959 36.9083 92.3959 36.475V24.7L93.3709 24.925L88.2709 32.7C88.1209 32.8833 87.9292 33.0417 87.6959 33.175C87.4792 33.3083 87.2542 33.3667 87.0209 33.35C86.8042 33.3667 86.5792 33.3083 86.3459 33.175C86.1292 33.0417 85.9459 32.8833 85.7959 32.7L81.0209 25.15L81.6709 23.825V36.475C81.6709 36.9083 81.5376 37.275 81.2709 37.575C81.0042 37.8583 80.6542 38 80.2209 38C79.8042 38 79.4626 37.8583 79.1959 37.575C78.9292 37.275 78.7959 36.9083 78.7959 36.475V22C78.7959 21.5833 78.9459 21.225 79.2459 20.925C79.5626 20.625 79.9376 20.475 80.3709 20.475ZM106.504 20.5C107.371 20.5 108.179 20.75 108.929 21.25C109.696 21.75 110.313 22.425 110.779 23.275C111.246 24.125 111.479 25.075 111.479 26.125C111.479 27.1583 111.246 28.1 110.779 28.95C110.313 29.8 109.696 30.4833 108.929 31C108.179 31.5 107.371 31.75 106.504 31.75H101.904L102.154 31.3V36.475C102.154 36.9083 102.021 37.275 101.754 37.575C101.488 37.8583 101.138 38 100.704 38C100.288 38 99.946 37.8583 99.6793 37.575C99.4126 37.275 99.2793 36.9083 99.2793 36.475V22.025C99.2793 21.5917 99.421 21.2333 99.7043 20.95C100.004 20.65 100.371 20.5 100.804 20.5H106.504ZM106.504 28.9C106.821 28.9 107.129 28.7667 107.429 28.5C107.729 28.2333 107.979 27.8917 108.179 27.475C108.379 27.0417 108.479 26.5917 108.479 26.125C108.479 25.6417 108.379 25.1917 108.179 24.775C107.979 24.3583 107.729 24.025 107.429 23.775C107.129 23.5083 106.821 23.375 106.504 23.375H101.854L102.154 22.925V29.3L101.879 28.9H106.504ZM123.993 35.075C124.426 35.075 124.784 35.2167 125.068 35.5C125.368 35.7667 125.518 36.1167 125.518 36.55C125.518 36.9667 125.368 37.3167 125.068 37.6C124.784 37.8667 124.426 38 123.993 38H115.868C115.434 38 115.068 37.8583 114.768 37.575C114.484 37.275 114.343 36.9083 114.343 36.475V22.025C114.343 21.5917 114.493 21.2333 114.793 20.95C115.093 20.65 115.476 20.5 115.943 20.5C116.343 20.5 116.693 20.65 116.993 20.95C117.309 21.2333 117.468 21.5917 117.468 22.025V35.5L116.918 35.075H123.993ZM129.906 20.5H138.281C138.714 20.5 139.073 20.6417 139.356 20.925C139.656 21.1917 139.806 21.5417 139.806 21.975C139.806 22.3917 139.656 22.7333 139.356 23C139.073 23.25 138.714 23.375 138.281 23.375H131.281L131.506 22.95V27.825L131.306 27.625H137.156C137.589 27.625 137.948 27.7667 138.231 28.05C138.531 28.3167 138.681 28.6667 138.681 29.1C138.681 29.5167 138.531 29.8583 138.231 30.125C137.948 30.375 137.589 30.5 137.156 30.5H131.381L131.506 30.3V35.35L131.306 35.125H138.281C138.714 35.125 139.073 35.275 139.356 35.575C139.656 35.8583 139.806 36.1917 139.806 36.575C139.806 36.9917 139.656 37.3333 139.356 37.6C139.073 37.8667 138.714 38 138.281 38H129.906C129.473 38 129.106 37.8583 128.806 37.575C128.523 37.275 128.381 36.9083 128.381 36.475V22.025C128.381 21.5917 128.523 21.2333 128.806 20.95C129.106 20.65 129.473 20.5 129.906 20.5Z" fill="black"/>
<path d="M82.1399 50H88.8399C89.1866 50 89.4733 50.1133 89.6999 50.34C89.9399 50.5533 90.0599 50.8333 90.0599 51.18C90.0599 51.5133 89.9399 51.7867 89.6999 52C89.4733 52.2 89.1866 52.3 88.8399 52.3H83.2399L83.4199 51.96V55.86L83.2599 55.7H87.9399C88.2866 55.7 88.5733 55.8133 88.7999 56.04C89.0399 56.2533 89.1599 56.5333 89.1599 56.88C89.1599 57.2133 89.0399 57.4867 88.7999 57.7C88.5733 57.9 88.2866 58 87.9399 58H83.3199L83.4199 57.84V61.88L83.2599 61.7H88.8399C89.1866 61.7 89.4733 61.82 89.6999 62.06C89.9399 62.2867 90.0599 62.5533 90.0599 62.86C90.0599 63.1933 89.9399 63.4667 89.6999 63.68C89.4733 63.8933 89.1866 64 88.8399 64H82.1399C81.7933 64 81.4999 63.8867 81.2599 63.66C81.0333 63.42 80.9199 63.1267 80.9199 62.78V51.22C80.9199 50.8733 81.0333 50.5867 81.2599 50.36C81.4999 50.12 81.7933 50 82.1399 50ZM97.5052 53.14L93.1852 63.3C93.0919 63.5533 92.9452 63.7533 92.7452 63.9C92.5586 64.0333 92.3519 64.1 92.1252 64.1C91.7652 64.1 91.4986 64 91.3252 63.8C91.1519 63.6 91.0652 63.3533 91.0652 63.06C91.0652 62.94 91.0852 62.8133 91.1252 62.68L96.1052 50.72C96.2119 50.4533 96.3719 50.2467 96.5852 50.1C96.8119 49.9533 97.0519 49.8933 97.3052 49.92C97.5452 49.92 97.7652 49.9933 97.9652 50.14C98.1786 50.2733 98.3319 50.4667 98.4252 50.72L103.345 62.44C103.412 62.6133 103.445 62.7733 103.445 62.92C103.445 63.28 103.325 63.5667 103.085 63.78C102.859 63.9933 102.605 64.1 102.325 64.1C102.085 64.1 101.865 64.0267 101.665 63.88C101.479 63.7333 101.332 63.5333 101.225 63.28L96.9252 53.26L97.5052 53.14ZM93.8052 60.86L94.9052 58.56H100.305L100.685 60.86H93.8052ZM109.639 64.2C108.705 64.2 107.865 64.0867 107.119 63.86C106.372 63.62 105.659 63.2067 104.979 62.62C104.805 62.4733 104.672 62.3067 104.579 62.12C104.485 61.9333 104.439 61.7467 104.439 61.56C104.439 61.2533 104.545 60.9867 104.759 60.76C104.985 60.52 105.265 60.4 105.599 60.4C105.852 60.4 106.079 60.48 106.279 60.64C106.785 61.0533 107.285 61.3667 107.779 61.58C108.285 61.7933 108.905 61.9 109.639 61.9C110.132 61.9 110.585 61.8267 110.999 61.68C111.412 61.52 111.745 61.3133 111.999 61.06C112.252 60.7933 112.379 60.4933 112.379 60.16C112.379 59.76 112.259 59.42 112.019 59.14C111.779 58.86 111.412 58.6267 110.919 58.44C110.425 58.24 109.799 58.0867 109.039 57.98C108.319 57.8733 107.685 57.7133 107.139 57.5C106.592 57.2733 106.132 56.9933 105.759 56.66C105.399 56.3133 105.125 55.9133 104.939 55.46C104.752 54.9933 104.659 54.4733 104.659 53.9C104.659 53.0333 104.879 52.2933 105.319 51.68C105.772 51.0667 106.379 50.6 107.139 50.28C107.899 49.96 108.739 49.8 109.659 49.8C110.525 49.8 111.325 49.9333 112.059 50.2C112.805 50.4533 113.412 50.78 113.879 51.18C114.265 51.4867 114.459 51.84 114.459 52.24C114.459 52.5333 114.345 52.8 114.119 53.04C113.892 53.28 113.625 53.4 113.319 53.4C113.119 53.4 112.939 53.34 112.779 53.22C112.565 53.0333 112.279 52.86 111.919 52.7C111.559 52.5267 111.179 52.3867 110.779 52.28C110.379 52.16 110.005 52.1 109.659 52.1C109.085 52.1 108.599 52.1733 108.199 52.32C107.812 52.4667 107.519 52.6667 107.319 52.92C107.119 53.1733 107.019 53.4667 107.019 53.8C107.019 54.2 107.132 54.5333 107.359 54.8C107.599 55.0533 107.939 55.26 108.379 55.42C108.819 55.5667 109.345 55.7 109.959 55.82C110.759 55.9667 111.459 56.14 112.059 56.34C112.672 56.54 113.179 56.8 113.579 57.12C113.979 57.4267 114.279 57.82 114.479 58.3C114.679 58.7667 114.779 59.34 114.779 60.02C114.779 60.8867 114.539 61.6333 114.059 62.26C113.579 62.8867 112.945 63.3667 112.159 63.7C111.385 64.0333 110.545 64.2 109.639 64.2ZM125.699 49.94C126.006 49.94 126.279 50.06 126.519 50.3C126.773 50.5267 126.899 50.82 126.899 51.18C126.899 51.3 126.879 51.4267 126.839 51.56C126.813 51.68 126.759 51.8 126.679 51.92L122.139 58.42L122.499 57.04V62.78C122.499 63.1267 122.379 63.42 122.139 63.66C121.913 63.8867 121.646 64 121.339 64C121.006 64 120.719 63.8867 120.479 63.66C120.253 63.42 120.139 63.1267 120.139 62.78V57.2L120.299 57.84L115.979 52.1C115.846 51.9267 115.753 51.76 115.699 51.6C115.646 51.44 115.619 51.2933 115.619 51.16C115.619 50.8 115.759 50.5067 116.039 50.28C116.319 50.0533 116.606 49.94 116.899 49.94C117.273 49.94 117.599 50.1267 117.879 50.5L121.719 55.8L121.159 55.72L124.699 50.54C124.979 50.14 125.313 49.94 125.699 49.94ZM150.039 49.94C150.345 49.94 150.639 50.06 150.919 50.3C151.199 50.5267 151.339 50.84 151.339 51.24C151.339 51.36 151.319 51.4933 151.279 51.64L147.339 63.24C147.259 63.48 147.112 63.6667 146.899 63.8C146.699 63.92 146.485 63.9867 146.259 64C146.032 64 145.805 63.9333 145.579 63.8C145.365 63.6667 145.199 63.4733 145.079 63.22L142.119 56.5L142.299 56.62L139.379 63.22C139.259 63.4733 139.085 63.6667 138.859 63.8C138.645 63.9333 138.425 64 138.199 64C137.985 63.9867 137.772 63.92 137.559 63.8C137.345 63.6667 137.199 63.48 137.119 63.24L133.179 51.64C133.139 51.4933 133.119 51.36 133.119 51.24C133.119 50.84 133.259 50.5267 133.539 50.3C133.832 50.06 134.132 49.94 134.439 49.94C134.692 49.94 134.925 50.0067 135.139 50.14C135.365 50.2733 135.519 50.4667 135.599 50.72L138.779 60.36L138.339 60.34L141.179 53.52C141.285 53.28 141.439 53.0933 141.639 52.96C141.839 52.8133 142.065 52.7467 142.319 52.76C142.572 52.7467 142.799 52.8133 142.999 52.96C143.199 53.0933 143.345 53.28 143.439 53.52L146.039 60.04L145.719 60.24L148.859 50.72C148.939 50.4667 149.092 50.2733 149.319 50.14C149.545 50.0067 149.785 49.94 150.039 49.94ZM165.948 57C165.948 58 165.782 58.9333 165.448 59.8C165.115 60.6667 164.642 61.4333 164.028 62.1C163.428 62.7533 162.708 63.2667 161.868 63.64C161.042 64.0133 160.135 64.2 159.148 64.2C158.162 64.2 157.255 64.0133 156.428 63.64C155.602 63.2667 154.882 62.7533 154.268 62.1C153.668 61.4333 153.202 60.6667 152.868 59.8C152.535 58.9333 152.368 58 152.368 57C152.368 56 152.535 55.0667 152.868 54.2C153.202 53.3333 153.668 52.5733 154.268 51.92C154.882 51.2533 155.602 50.7333 156.428 50.36C157.255 49.9867 158.162 49.8 159.148 49.8C160.135 49.8 161.042 49.9867 161.868 50.36C162.708 50.7333 163.428 51.2533 164.028 51.92C164.642 52.5733 165.115 53.3333 165.448 54.2C165.782 55.0667 165.948 56 165.948 57ZM163.348 57C163.348 56.1067 163.168 55.3 162.808 54.58C162.448 53.8467 161.955 53.2667 161.328 52.84C160.702 52.4133 159.975 52.2 159.148 52.2C158.322 52.2 157.595 52.4133 156.968 52.84C156.342 53.2667 155.848 53.84 155.488 54.56C155.142 55.28 154.968 56.0933 154.968 57C154.968 57.8933 155.142 58.7067 155.488 59.44C155.848 60.16 156.342 60.7333 156.968 61.16C157.595 61.5867 158.322 61.8 159.148 61.8C159.975 61.8 160.702 61.5867 161.328 61.16C161.955 60.7333 162.448 60.16 162.808 59.44C163.168 58.7067 163.348 57.8933 163.348 57ZM169.684 64C169.311 64 168.977 63.8867 168.684 63.66C168.391 63.42 168.244 63.1267 168.244 62.78V51.22C168.244 50.8733 168.357 50.5867 168.584 50.36C168.824 50.12 169.117 50 169.464 50H175.224C175.917 50 176.564 50.1867 177.164 50.56C177.777 50.92 178.271 51.4267 178.644 52.08C179.017 52.72 179.204 53.46 179.204 54.3C179.204 54.8067 179.097 55.3 178.884 55.78C178.684 56.26 178.404 56.6933 178.044 57.08C177.697 57.4667 177.304 57.7667 176.864 57.98L176.884 57.52C177.257 57.72 177.564 57.96 177.804 58.24C178.057 58.5067 178.251 58.8 178.384 59.12C178.531 59.4267 178.617 59.76 178.644 60.12C178.697 60.4533 178.731 60.7467 178.744 61C178.771 61.2533 178.811 61.4667 178.864 61.64C178.931 61.8133 179.051 61.9467 179.224 62.04C179.517 62.2133 179.697 62.4667 179.764 62.8C179.844 63.12 179.771 63.4067 179.544 63.66C179.397 63.8333 179.211 63.9467 178.984 64C178.757 64.04 178.531 64.04 178.304 64C178.077 63.9467 177.891 63.88 177.744 63.8C177.517 63.6667 177.291 63.4733 177.064 63.22C176.837 62.9533 176.651 62.6 176.504 62.16C176.371 61.72 176.304 61.1533 176.304 60.46C176.304 60.2333 176.264 60.0267 176.184 59.84C176.104 59.64 175.991 59.4733 175.844 59.34C175.697 59.1933 175.511 59.0867 175.284 59.02C175.057 58.94 174.791 58.9 174.484 58.9H170.444L170.744 58.44V62.78C170.744 63.1267 170.651 63.42 170.464 63.66C170.277 63.8867 170.017 64 169.684 64ZM170.464 56.84H175.124C175.364 56.84 175.597 56.7333 175.824 56.52C176.051 56.2933 176.237 55.9933 176.384 55.62C176.531 55.2333 176.604 54.8133 176.604 54.36C176.604 53.7733 176.444 53.2867 176.124 52.9C175.817 52.5 175.484 52.3 175.124 52.3H170.504L170.744 51.66V57.32L170.464 56.84ZM191.615 64C191.241 64 190.941 63.8467 190.715 63.54L186.095 57.46L187.915 55.6L192.695 61.92C192.881 62.1733 192.975 62.4467 192.975 62.74C192.975 63.1133 192.835 63.42 192.555 63.66C192.275 63.8867 191.961 64 191.615 64ZM191.855 49.9C192.175 49.9 192.435 50.0333 192.635 50.3C192.848 50.5533 192.955 50.8133 192.955 51.08C192.955 51.36 192.835 51.62 192.595 51.86L184.215 59.88L184.115 57.02L190.875 50.36C191.181 50.0533 191.508 49.9 191.855 49.9ZM183.215 64C182.841 64 182.541 63.8867 182.315 63.66C182.088 63.42 181.975 63.1267 181.975 62.78V51.22C181.975 50.8733 182.095 50.5867 182.335 50.36C182.575 50.12 182.881 50 183.255 50C183.628 50 183.921 50.12 184.135 50.36C184.361 50.5867 184.475 50.8733 184.475 51.22V62.78C184.475 63.1267 184.361 63.42 184.135 63.66C183.908 63.8867 183.601 64 183.215 64Z" fill="white"/>
<path d="M88.8398 50.0002C89.1865 50.0002 89.4735 50.1134 89.7002 50.3401C89.9401 50.5534 90.0595 50.8334 90.0596 51.1799C90.0596 51.5132 89.9402 51.7869 89.7002 52.0002C89.4735 52.2002 89.1865 52.3 88.8398 52.3H83.4199V55.0002H81V63.2444C80.9473 63.1021 80.92 62.9476 80.9199 62.7805V51.22C80.9199 50.8733 81.0331 50.5863 81.2598 50.3596C81.4997 50.1198 81.7932 50.0003 82.1396 50.0002H88.8398ZM97.3057 49.9202C97.5454 49.9203 97.7651 49.9935 97.9648 50.1399C98.1781 50.2732 98.3315 50.4667 98.4248 50.72L100.222 55.0002H97.6719L97.1904 53.8792L96.7139 55.0002H94.3232L96.1055 50.72C96.2121 50.4534 96.3717 50.2465 96.585 50.0999C96.8116 49.9532 97.0523 49.8935 97.3057 49.9202ZM109.658 49.8C110.525 49.8 111.325 49.9338 112.059 50.2004C112.805 50.4538 113.412 50.7799 113.879 51.1799C114.266 51.4866 114.459 51.8405 114.459 52.2405C114.459 52.5336 114.346 52.8004 114.119 53.0403C113.892 53.2803 113.625 53.3997 113.318 53.3997C113.118 53.3996 112.938 53.3399 112.778 53.22C112.565 53.0334 112.279 52.8603 111.919 52.7004C111.559 52.5271 111.178 52.3872 110.778 52.2805C110.378 52.1606 110.005 52.0999 109.658 52.0999C109.085 52.0999 108.598 52.173 108.198 52.3196C107.812 52.4662 107.518 52.6669 107.318 52.9202C107.118 53.1734 107.019 53.4668 107.019 53.8C107.019 54.2 107.132 54.5334 107.358 54.8C107.425 54.8706 107.501 54.9369 107.583 55.0002H104.79C104.703 54.6583 104.658 54.2913 104.658 53.8997C104.658 53.0332 104.878 52.2932 105.318 51.6799C105.772 51.0666 106.379 50.6005 107.139 50.2805C107.899 49.9606 108.738 49.8001 109.658 49.8ZM116.899 49.9397C117.273 49.9397 117.599 50.127 117.879 50.5002L121.14 55.0002H118.162L115.979 52.0999C115.846 51.9265 115.753 51.7598 115.699 51.5999C115.646 51.4401 115.619 51.2936 115.619 51.1604C115.619 50.8006 115.759 50.5071 116.039 50.2805C116.319 50.0539 116.606 49.9397 116.899 49.9397ZM125.699 49.9397C126.006 49.9397 126.28 50.06 126.52 50.3C126.773 50.5267 126.899 50.82 126.899 51.1799C126.899 51.2999 126.879 51.4265 126.839 51.5598C126.812 51.6798 126.76 51.8002 126.68 51.9202L124.528 55.0002H121.651L124.699 50.5403C124.979 50.1403 125.313 49.9397 125.699 49.9397ZM134.438 49.9397C134.692 49.9397 134.925 50.0066 135.139 50.1399C135.365 50.2732 135.519 50.4667 135.599 50.72L137.011 55.0002H134.32L133.179 51.6399C133.139 51.4935 133.119 51.3603 133.119 51.2405C133.119 50.8405 133.259 50.5267 133.539 50.3C133.832 50.0602 134.132 49.9398 134.438 49.9397ZM142.318 52.76C142.572 52.7467 142.799 52.8135 142.999 52.9602C143.199 53.0935 143.345 53.28 143.438 53.5198L144.029 55.0002H140.562L141.179 53.5198C141.285 53.2799 141.439 53.0935 141.639 52.9602C141.839 52.8136 142.065 52.7468 142.318 52.76ZM150.039 49.9397C150.346 49.9398 150.639 50.0601 150.919 50.3C151.199 50.5267 151.339 50.8405 151.339 51.2405C151.339 51.3603 151.319 51.4935 151.279 51.6399L150.138 55.0002H147.447L148.858 50.72C148.938 50.4667 149.092 50.2732 149.318 50.1399C149.545 50.0066 149.786 49.9397 150.039 49.9397ZM159.148 49.8C160.135 49.8001 161.042 49.9864 161.868 50.3596C162.708 50.733 163.428 51.2535 164.028 51.9202C164.642 52.5735 165.115 53.3338 165.448 54.2004C165.548 54.4609 165.632 54.7277 165.702 55.0002H162.992C162.937 54.8574 162.877 54.7169 162.809 54.5803C162.449 53.847 161.955 53.2668 161.328 52.8401C160.702 52.4135 159.975 52.2005 159.148 52.2004C158.322 52.2004 157.595 52.4135 156.969 52.8401C156.342 53.2667 155.848 53.8399 155.488 54.5598C155.42 54.7026 155.36 54.8501 155.305 55.0002H152.614C152.684 54.7277 152.768 54.4609 152.868 54.2004C153.201 53.3338 153.669 52.5735 154.269 51.9202C154.882 51.2535 155.602 50.7329 156.429 50.3596C157.255 49.9864 158.162 49.8 159.148 49.8ZM175.225 50.0002C175.918 50.0003 176.564 50.1866 177.164 50.5598C177.777 50.9198 178.271 51.427 178.645 52.0803C179.018 52.7202 179.204 53.4602 179.204 54.3C179.204 54.5364 179.18 54.7697 179.134 55.0002H176.551C176.586 54.7947 176.604 54.581 176.604 54.3596C176.604 53.7731 176.444 53.2862 176.124 52.8997C175.817 52.4999 175.484 52.3 175.124 52.3H170.744V55.0002H168.244V51.22C168.244 50.8733 168.357 50.5863 168.584 50.3596C168.824 50.1198 169.117 50.0003 169.464 50.0002H175.225ZM183.255 50.0002C183.628 50.0003 183.921 50.1198 184.135 50.3596C184.361 50.5863 184.475 50.8733 184.475 51.22V55.0002H181.975V51.22C181.975 50.8733 182.095 50.5863 182.335 50.3596C182.575 50.1199 182.882 50.0002 183.255 50.0002ZM191.854 49.8997C192.174 49.8997 192.435 50.0334 192.635 50.3C192.848 50.5534 192.955 50.8137 192.955 51.0803C192.955 51.3601 192.834 51.6198 192.595 51.8596L189.313 55.0002H186.164L190.875 50.3596C191.182 50.0533 191.508 49.8997 191.854 49.8997Z" fill="black"/>
</svg>
